PathFileType	4	(X/Y/Z)	C:/Users/opensim2020/Desktop/walking_exp_matlab/subject02_walking09_straight_03.trc	
DataRate	CameraRate	NumFrames	NumMarkers	Units	OrigDataRate	OrigDataStartFrame	OrigNumFrames	
100.00	100.00	9	42	mm	100.00	2243	262	
Frame#	Time	LFHD			RFHD			LBHD			RBHD			C7			T10			CLAV			STRN			RBAK			LSHO			LUPA			LELB			LFRM			LWRA			LWRB			LFIN			RSHO			RUPA			RELB			RFRM			RWRA			RWRB			RFIN			LASI			RASI			LPSI			RPSI			LTHI			LKNE			LTIB			LANK			LHEE			LTOE			RTHI			RKNE			RTIB			RANK			RHEE			RTOE			*39			*40			*41			
		X1	Y1	Z1	X2	Y2	Z2	X3	Y3	Z3	X4	Y4	Z4	X5	Y5	Z5	X6	Y6	Z6	X7	Y7	Z7	X8	Y8	Z8	X9	Y9	Z9	X10	Y10	Z10	X11	Y11	Z11	X12	Y12	Z12	X13	Y13	Z13	X14	Y14	Z14	X15	Y15	Z15	X16	Y16	Z16	X17	Y17	Z17	X18	Y18	Z18	X19	Y19	Z19	X20	Y20	Z20	X21	Y21	Z21	X22	Y22	Z22	X23	Y23	Z23	X24	Y24	Z24	X25	Y25	Z25	X26	Y26	Z26	X27	Y27	Z27	X28	Y28	Z28	X29	Y29	Z29	X30	Y30	Z30	X31	Y31	Z31	X32	Y32	Z32	X33	Y33	Z33	X34	Y34	Z34	X35	Y35	Z35	X36	Y36	Z36	X37	Y37	Z37	X38	Y38	Z38	X39	Y39	Z39	X40	Y40	Z40	X41	Y41	Z41	X42	Y42	Z42	

66	0.650	-945.24213	-519.96790	1757.53418	-804.05603	-539.30902	1736.17322	-973.84064	-625.66553	1653.21802	-836.11993	-656.03308	1627.31226	-905.41400	-673.57788	1528.26990	-913.02295	-742.03143	1258.86035	-907.10565	-534.20319	1457.25623	-895.68353	-492.46118	1281.22217	-845.19550	-742.06018	1360.78845	-1080.23193	-587.24139	1505.02332	-1172.79871	-614.22186	1312.18604	-1196.02478	-630.74365	1173.80200	-1219.91382	-623.81830	1042.82190	-1202.41455	-565.59485	916.30847	-1232.20410	-614.20325	919.99780	-1241.29529	-593.05219	856.92065	-715.49554	-601.22357	1491.10486	-627.45477	-601.56714	1298.83191	-608.88153	-554.90161	1157.87549	-594.87787	-494.16013	1053.69824	-618.77734	-412.03610	947.49371	-585.58765	-455.11826	929.29089	-583.70117	-400.19012	882.80420	-1027.22461	-501.68790	992.21533	-773.56384	-538.57599	972.22675	-977.00635	-720.74268	1036.89929	-863.71429	-741.41193	1035.82336	-1112.24646	-505.98361	692.02496	-1089.05811	-472.03470	494.71933	-1103.35999	-460.86795	302.19016	-1087.64685	-375.00696	92.05659	-1038.07556	-401.96783	55.20204	-1082.83167	-215.70886	93.18823	-742.90594	-650.60681	668.99329	-793.41748	-668.17358	460.29492	-804.80115	-730.94458	282.40628	-856.07440	-760.66888	93.08411	-919.84998	-787.70331	40.90659	-813.38031	-617.65308	33.62429	-873.92688	-648.05811	1793.48669						 
67	0.660	-945.74957	-513.71155	1756.94421	-804.59033	-532.82324	1735.42969	-974.31641	-619.30817	1652.49890	-836.61005	-649.02118	1626.39624	-905.82153	-667.27582	1527.69666	-913.48193	-735.65198	1258.22437	-907.77856	-527.74951	1456.48242	-896.30225	-486.04938	1280.46240	-845.75012	-736.00720	1360.32434	-1080.78369	-580.92419	1504.21411	-1173.64185	-608.91168	1311.91003	-1196.57214	-626.45520	1173.45667	-1221.34717	-620.73285	1042.38074	-1204.29871	-563.59766	915.84180	-1234.10022	-612.53717	919.91492	-1243.13867	-592.17682	856.38934	-716.02411	-594.80963	1490.39355	-628.13904	-595.25464	1297.91040	-609.16644	-548.51093	1157.00867	-595.72290	-487.09695	1053.28235	-619.80573	-403.85852	947.98834	-586.79260	-446.75607	929.13617	-585.01477	-391.35889	883.27576	-1027.24097	-495.31232	991.41132	-773.50641	-532.30261	971.71716	-977.10419	-714.42297	1036.06360	-863.79303	-734.95642	1035.05078	-1111.30676	-498.69357	691.68610	-1088.34473	-463.83896	494.27280	-1101.82092	-450.37851	301.91135	-1086.14307	-361.35107	93.09621	-1036.21973	-387.74362	56.43338	-1082.07495	-201.95735	94.77398	-742.76605	-645.21808	668.66180	-793.21320	-664.39697	459.98956	-804.74219	-728.61304	282.67480	-856.13727	-760.00525	93.61543	-919.98163	-787.65717	41.79442	-813.27686	-617.49176	33.60875	-874.27228	-641.74152	1792.66663						 
68	0.670	-946.34180	-507.49005	1756.35449	-805.10419	-526.47894	1734.65063	-974.90289	-612.86481	1651.72046	-837.20789	-642.38208	1625.46729	-906.51080	-660.70062	1526.96436	-913.95795	-729.19934	1257.51697	-908.51709	-521.22028	1455.70435	-897.03735	-479.63272	1279.69373	-846.38965	-728.62097	1359.35913	-1081.43762	-574.89844	1503.60742	-1174.40161	-603.59387	1311.42297	-1197.37195	-622.11584	1173.15308	-1222.42261	-617.82922	1042.12903	-1206.40869	-561.75598	914.79156	-1235.83765	-610.68970	919.72144	-1245.04651	-591.17474	855.82104	-716.63666	-588.20697	1489.73267	-628.91052	-589.46130	1296.91162	-609.62408	-542.34229	1156.37024	-596.31854	-479.51471	1052.96375	-620.88391	-395.99673	948.25958	-588.12445	-438.66626	928.99713	-586.47040	-382.65421	883.60791	-1027.37109	-489.00967	990.49841	-773.57135	-525.89941	971.23260	-977.28326	-708.03229	1035.20020	-863.97699	-728.60242	1034.29712	-1110.93835	-491.01550	691.03406	-1087.73889	-455.48743	493.82135	-1100.38391	-440.29474	301.54175	-1084.72510	-349.13113	93.93587	-1034.25793	-374.40826	57.03545	-1081.69421	-189.53371	96.00570	-742.68140	-639.73120	668.34680	-793.02979	-660.84656	459.85843	-804.57391	-726.34796	283.03009	-856.11145	-759.42554	94.24669	-920.24231	-787.40179	42.48868	-813.26135	-617.48035	33.59713	-874.65332	-635.40680	1791.82556						 
69	0.680	-947.08087	-501.08115	1755.69751	-805.85345	-519.95715	1733.84338	-975.60468	-606.36279	1650.91907	-837.95959	-636.12146	1624.54382	-907.33655	-653.94012	1526.13989	-914.55273	-722.68567	1256.77979	-909.44385	-514.64307	1454.86414	-897.90051	-473.11200	1278.88123	-847.04535	-721.94678	1358.80066	-1082.27734	-568.51178	1502.78784	-1175.36218	-598.25385	1310.86377	-1198.67053	-617.85077	1172.98914	-1223.70593	-614.74677	1041.93640	-1208.39746	-560.04547	913.69861	-1237.55688	-608.92810	919.33685	-1246.89441	-590.16626	855.19519	-717.66473	-581.61420	1488.59937	-629.78168	-584.12140	1296.11401	-610.14459	-535.94537	1155.42188	-597.65015	-472.73904	1052.19250	-622.35132	-388.41501	948.52747	-589.54968	-430.85568	928.65869	-588.41919	-374.93280	883.70129	-1027.70337	-482.56897	989.57056	-773.75159	-519.37292	970.68390	-977.46539	-701.61188	1034.36584	-864.21106	-722.24036	1033.65186	-1110.74072	-483.19885	690.45166	-1087.18408	-446.80072	493.38333	-1098.87305	-430.62378	301.14221	-1083.16272	-337.96078	94.32401	-1032.28210	-362.94186	57.80083	-1081.68188	-178.41161	96.83592	-742.56036	-634.15417	668.03198	-792.70233	-656.20801	459.64993	-804.50488	-724.01630	283.42059	-856.22247	-758.86249	94.91656	-920.45038	-787.22058	43.47528	-813.18237	-617.36383	33.58083	-875.40192	-629.27466	1790.84082						 
70	0.690	-947.87189	-494.72488	1755.07227	-806.56927	-513.52838	1733.01892	-976.47754	-599.84888	1650.10938	-838.74524	-629.22437	1623.51367	-908.08649	-647.42828	1525.47998	-915.19769	-716.03613	1256.00525	-910.37140	-508.01196	1454.01489	-898.85706	-466.49545	1278.05029	-847.80988	-716.10272	1358.34314	-1083.17651	-562.14734	1501.93445	-1176.29626	-592.91168	1310.29346	-1199.54590	-613.47858	1172.66052	-1225.44653	-611.61816	1041.86914	-1210.50037	-557.97302	912.83264	-1239.37695	-606.96497	919.05835	-1249.12366	-588.77692	854.76300	-718.39966	-574.81396	1488.02002	-630.71185	-577.10663	1295.19067	-610.79767	-529.47736	1154.49036	-598.65588	-466.53259	1051.45532	-623.78143	-380.80838	948.36682	-591.12152	-423.25052	928.23718	-589.85437	-366.96689	883.76563	-1028.28418	-476.05624	988.73071	-774.06293	-512.68750	970.17004	-977.79498	-695.14899	1033.37512	-864.59833	-715.66211	1032.90051	-1110.71863	-475.36127	689.92102	-1086.64404	-437.96851	493.05981	-1097.58130	-421.29532	300.79507	-1081.67224	-327.90845	94.43182	-1030.23511	-352.13507	58.04152	-1081.89209	-168.37932	97.12842	-742.59308	-628.51593	667.72638	-792.57428	-652.34204	459.40277	-804.42944	-721.71143	283.86984	-856.21503	-758.29999	95.68816	-920.54712	-786.82880	44.27995	-813.06085	-617.27545	33.61051	-876.04266	-622.86139	1790.03857						 
71	0.700	-948.82733	-488.38235	1754.45837	-807.42865	-507.00259	1732.22913	-977.71832	-593.40314	1649.37048	-839.59802	-622.40546	1622.39917	-908.95691	-640.70807	1524.69177	-915.84912	-709.35791	1255.24792	-911.49707	-501.27335	1453.18433	-899.89423	-459.82846	1277.18774	-848.58801	-709.13458	1357.48865	-1084.14465	-555.71375	1501.03540	-1177.33386	-587.50897	1309.67688	-1200.52966	-608.95404	1172.12463	-1226.89856	-608.30890	1041.31067	-1212.65002	-555.79407	911.92883	-1241.32568	-604.81390	918.71655	-1251.19983	-587.36719	854.24078	-719.32727	-567.79834	1487.17761	-631.66260	-571.30011	1294.48804	-611.60840	-523.69592	1153.52502	-599.62280	-459.23941	1050.96484	-625.36176	-373.75522	948.32941	-592.81317	-415.96561	927.66949	-591.75043	-358.86639	883.54309	-1028.98938	-469.49097	987.80963	-774.53870	-505.82291	969.64630	-978.14264	-688.53003	1032.39905	-865.07489	-709.06812	1032.14795	-1110.91199	-467.45886	689.31641	-1086.12134	-428.98502	492.68524	-1096.39734	-412.32617	300.48108	-1080.20581	-318.82263	94.28513	-1028.48462	-342.73663	58.25353	-1082.23425	-159.31755	96.77863	-742.60205	-623.18140	667.53784	-792.51190	-648.11487	459.35840	-804.40924	-719.47888	284.37756	-856.13782	-757.78552	96.49533	-920.47693	-786.70062	45.26704	-812.93353	-617.19781	33.58341	-876.82971	-616.50421	1789.02527						 
72	0.710	-949.83618	-481.96625	1753.73975	-808.56757	-500.34109	1731.37231	-978.38477	-586.64496	1648.37927	-840.44464	-615.92413	1621.50391	-909.97052	-633.88776	1523.86499	-916.62225	-702.63348	1254.40479	-912.70300	-494.50378	1452.26733	-901.07385	-453.05124	1276.29211	-849.51166	-701.83203	1356.39465	-1085.40002	-549.25305	1500.15405	-1178.46265	-582.14655	1309.01062	-1201.60120	-604.46729	1171.64111	-1228.17761	-605.14191	1040.87634	-1214.91956	-553.44501	911.07959	-1243.29675	-602.59778	918.34698	-1253.36145	-585.80188	853.68823	-720.38745	-560.94623	1486.35242	-632.90192	-565.11841	1293.53076	-612.48376	-517.38989	1152.54871	-601.09137	-452.85574	1050.00366	-627.12329	-366.75925	948.01099	-594.59698	-409.06580	926.98883	-593.72211	-351.94977	882.97296	-1029.88049	-462.78619	986.92249	-775.10651	-498.83450	969.05774	-978.58783	-681.85663	1031.36169	-865.63348	-702.17157	1031.34448	-1111.24426	-459.55646	688.71960	-1085.87683	-420.01913	492.31372	-1094.93213	-403.35379	299.92709	-1078.79163	-310.60803	93.89468	-1026.72058	-334.02820	57.97938	-1082.65259	-151.34706	95.76113	-742.83936	-617.67407	667.30505	-792.45410	-644.11792	459.23056	-804.28088	-717.52930	284.96997	-856.06555	-757.24915	97.28285	-920.36890	-786.56635	46.30754	-812.69708	-617.26715	33.59320	-877.70966	-610.06628	1788.06274						 
73	0.720	-950.92401	-475.46625	1753.05396	-809.76117	-493.70438	1730.54822	-979.49554	-579.98523	1647.47388	-841.68195	-608.93689	1620.36865	-910.99139	-627.00671	1523.07031	-917.49243	-695.72949	1253.54797	-914.07684	-487.59625	1451.40222	-902.29944	-446.18900	1275.47351	-850.52814	-695.78815	1355.87549	-1086.49194	-542.78809	1499.22864	-1179.74390	-576.79230	1308.33203	-1202.85242	-599.90521	1171.14111	-1229.85193	-601.81122	1040.57068	-1217.17908	-550.71777	910.64838	-1245.13989	-600.26642	917.80811	-1255.48120	-584.10052	853.17511	-721.54480	-553.62927	1485.33569	-634.21552	-558.47339	1292.69019	-613.59210	-511.22580	1151.60229	-602.26990	-446.57959	1049.13562	-628.80786	-360.32047	947.43762	-596.40552	-402.23514	926.13239	-595.85852	-345.03091	882.51123	-1030.91223	-455.90250	986.04034	-775.78040	-491.74905	968.48364	-979.08093	-674.95117	1030.28467	-866.27869	-695.18463	1030.50891	-1111.86157	-451.59668	688.08246	-1085.69421	-411.07715	491.87558	-1093.99634	-394.91443	299.43167	-1077.46753	-303.21890	93.27251	-1024.90295	-326.45853	57.75310	-1083.02905	-144.31381	94.27606	-742.97137	-612.30298	667.16150	-792.32678	-640.13666	459.13327	-804.25153	-715.17560	285.64316	-855.77557	-756.70972	98.24779	-920.21655	-786.20844	47.31073	-812.57867	-617.20557	33.58117	-878.74628	-603.62714	1787.04785						 
74	0.730	-952.26416	-468.96152	1752.33630	-810.96747	-487.06796	1729.74133	-980.81146	-573.25732	1646.56055	-842.87109	-602.43109	1619.38477	-912.18597	-620.08917	1522.22571	-918.36932	-688.75964	1252.68713	-915.42706	-480.64670	1450.50867	-903.61884	-439.20139	1274.60168	-851.48627	-687.91833	1354.80481	-1087.91370	-536.29230	1498.30066	-1181.05823	-571.33966	1307.58508	-1204.26282	-595.27948	1170.56165	-1232.07178	-598.24133	1040.43018	-1219.55933	-548.39453	909.37097	-1247.10645	-597.76935	917.40948	-1257.65369	-582.27441	852.60602	-722.91461	-546.71271	1484.70984	-635.33453	-551.74866	1291.59216	-614.85846	-505.48196	1150.62903	-603.76202	-440.03928	1048.10999	-630.69641	-353.85226	946.67487	-598.35602	-395.71216	925.17694	-597.99072	-338.52472	881.69464	-1032.07202	-448.94357	985.16766	-776.60822	-484.47430	967.87048	-979.65814	-667.86597	1029.16321	-867.00977	-688.05322	1029.67029	-1112.61597	-443.68314	687.41132	-1085.60034	-402.24182	491.39328	-1093.19128	-386.90933	298.84009	-1076.10986	-296.66925	92.30686	-1023.01807	-319.48932	56.84651	-1083.36743	-138.01811	92.56208	-743.35028	-606.64313	666.93817	-792.34277	-636.13611	459.07318	-804.06219	-713.24286	286.34180	-855.63342	-756.28217	99.15225	-919.93091	-786.32159	48.58947	-812.36261	-617.22430	33.62167	-879.95276	-597.09521	1786.05835						 
